<?xml version="1.0" encoding="iso-8859-1"?>
<!-- Generator: Adobe Illustrator 19.1.0, SVG Export Plug-In . SVG Version: 6.00 Build 0)  -->
<svg version="1.1" id="Capa_1" xmlns="http://www.w3.org/2000/svg" xmlns:xlink="http://www.w3.org/1999/xlink" x="0px" y="0px"
	 viewBox="0 0 71.087 71.087" style="enable-background:new 0 0 71.087 71.087;" xml:space="preserve">
<g>
	<path style="fill:#FFDD00;" d="M33.996,35.609v0.64c1.643,1.064,2.735,2.904,2.735,5.007c0,3.298-2.673,5.971-5.971,5.971
		c-3.297,0-5.971-2.673-5.971-5.971c0-2.103,1.093-3.943,2.735-5.007v-0.64H16.692v4.784c0,10.625,8.613,19.238,19.238,19.238
		s19.238-8.613,19.238-19.238v-4.784H33.996z"/>
	<path style="fill:#231F20;" d="M25.322,36.55h-1.233c-0.346,0-0.616-0.284-0.616-0.616c0-0.345,0.271-0.616,0.616-0.616h1.233
		c0.332,0,0.616,0.271,0.616,0.616C25.938,36.267,25.654,36.55,25.322,36.55z M21.624,36.55c-0.345,0-0.616-0.284-0.616-0.616
		c0-0.345,0.271-0.616,0.616-0.616c0.332,0,0.616,0.271,0.616,0.616C22.24,36.267,21.956,36.55,21.624,36.55z M17.926,36.55h-1.233
		c-0.345,0-0.616-0.284-0.616-0.616c0-0.345,0.271-0.616,0.616-0.616h1.233c0.332,0,0.616,0.271,0.616,0.616
		C18.542,36.267,18.258,36.55,17.926,36.55z"/>
	<path style="fill:#231F20;" d="M53.723,36.55c-0.346,0-0.616-0.284-0.616-0.616c0-0.345,0.271-0.616,0.616-0.616
		c0.332,0,0.604,0.271,0.604,0.616C54.327,36.267,54.055,36.55,53.723,36.55z M50.013,36.55H48.78c-0.333,0-0.604-0.284-0.604-0.616
		c0-0.345,0.271-0.616,0.604-0.616h1.233c0.344,0,0.616,0.271,0.616,0.616C50.629,36.267,50.357,36.55,50.013,36.55z M46.315,36.55
		c-0.333,0-0.604-0.284-0.604-0.616c0-0.345,0.271-0.616,0.604-0.616c0.344,0,0.616,0.271,0.616,0.616
		C46.931,36.267,46.659,36.55,46.315,36.55z M42.629,36.55h-1.245c-0.333,0-0.616-0.284-0.616-0.616
		c0-0.345,0.283-0.616,0.616-0.616h1.245c0.332,0,0.616,0.271,0.616,0.616C43.245,36.267,42.961,36.55,42.629,36.55z M38.919,36.55
		c-0.333,0-0.616-0.284-0.616-0.616c0-0.345,0.283-0.616,0.616-0.616c0.344,0,0.616,0.271,0.616,0.616
		C39.535,36.267,39.263,36.55,38.919,36.55z M35.221,36.55H34c-0.346,0-0.616-0.284-0.616-0.616c0-0.345,0.271-0.616,0.616-0.616
		h1.221c0.344,0,0.616,0.271,0.616,0.616C35.837,36.267,35.565,36.55,35.221,36.55z"/>
	<path style="fill:#231F20;" d="M49.593,71.087H22.266c-1.021,0-1.849-0.828-1.849-1.849c0-1.021,0.828-1.849,1.849-1.849h27.327
		c1.021,0,1.849,0.828,1.849,1.849C51.442,70.259,50.614,71.087,49.593,71.087z"/>
	<path style="fill:#231F20;" d="M35.929,71.087c-1.021,0-1.849-0.828-1.849-1.849v-9.016c0-1.021,0.828-1.849,1.849-1.849
		c1.021,0,1.849,0.828,1.849,1.849v9.016C37.778,70.259,36.949,71.087,35.929,71.087z"/>
	<path style="fill:#231F20;" d="M35.929,61.48c-11.626,0-21.086-9.459-21.086-21.087V28.978c0-1.021,0.828-1.849,1.849-1.849h10.832
		c1.021,0,1.849,0.828,1.849,1.849v7.272c0,0.627-0.318,1.211-0.844,1.552c-1.185,0.767-1.891,2.058-1.891,3.455
		c0,2.273,1.849,4.122,4.122,4.122c2.273,0,4.122-1.849,4.122-4.122c0-1.397-0.707-2.688-1.891-3.454
		c-0.526-0.341-0.844-0.925-0.844-1.552v-7.272c0-1.021,0.828-1.849,1.849-1.849H55.12c1.021,0,1.896,0.828,1.896,1.849v11.416
		C57.016,52.021,47.556,61.48,35.929,61.48z M18.541,30.827v9.567c0,9.588,7.801,17.389,17.388,17.389
		c9.588,0,17.389-7.801,17.389-17.389v-9.567H35.844v4.5c1.729,1.477,2.735,3.626,2.735,5.93c0,4.312-3.508,7.82-7.82,7.82
		s-7.82-3.508-7.82-7.82c0-2.303,1.006-4.452,2.735-5.929v-4.501H18.541z"/>
	<path style="fill:#231F20;" d="M30.76,49.076c-4.312,0-7.82-3.508-7.82-7.82c0-2.303,1.006-4.452,2.735-5.929v-4.501h-7.846
		c-0.376,0-0.742-0.114-1.051-0.327c-1.694-1.17-2.706-3.093-2.706-5.144c0-2.483,1.486-4.674,3.658-5.666
		c-0.008-0.166-0.012-0.332-0.012-0.498c0-5.424,4.039-9.923,9.267-10.648C28.26,3.578,32.759,0,38.02,0
		c4.531,0,8.599,2.686,10.414,6.777c3.682,1.267,6.262,4.801,6.262,8.759c0,1.254-0.258,2.492-0.751,3.641
		c1.989,2.522,3.071,5.62,3.071,8.854c0,0.35-0.023,0.693-0.048,1.037c-0.071,0.966-0.879,1.76-1.848,1.76H35.844v4.5
		c1.729,1.477,2.735,3.626,2.735,5.93C38.579,45.569,35.072,49.076,30.76,49.076z M18.492,27.129h9.032
		c1.021,0,1.849,0.828,1.849,1.849v7.272c0,0.627-0.318,1.211-0.844,1.552c-1.185,0.767-1.891,2.058-1.891,3.455
		c0,2.273,1.849,4.122,4.122,4.122c2.273,0,4.122-1.849,4.122-4.122c0-1.397-0.707-2.688-1.891-3.454
		c-0.526-0.341-0.844-0.925-0.844-1.552v-7.272c0-1.021,0.828-1.849,1.849-1.849h19.284c-0.202-2.396-1.211-4.647-2.892-6.417
		c-0.579-0.61-0.673-1.534-0.23-2.248c0.55-0.886,0.84-1.898,0.84-2.928c0-2.583-1.83-4.866-4.352-5.427
		c-0.627-0.14-1.138-0.597-1.347-1.205C44.23,5.79,41.305,3.698,38.02,3.698c-3.911,0-7.199,2.927-7.647,6.808
		c-0.113,0.981-1.027,1.707-2.015,1.63c-3.78,0.004-6.942,3.167-6.942,7.055c0,0.48,0.051,0.966,0.149,1.446
		c0.105,0.504-0.006,1.028-0.305,1.447c-0.299,0.419-0.757,0.694-1.268,0.761c-1.268,0.165-2.223,1.244-2.223,2.51
		C17.769,26.021,18.033,26.656,18.492,27.129z"/>
</g>
<g>
</g>
<g>
</g>
<g>
</g>
<g>
</g>
<g>
</g>
<g>
</g>
<g>
</g>
<g>
</g>
<g>
</g>
<g>
</g>
<g>
</g>
<g>
</g>
<g>
</g>
<g>
</g>
<g>
</g>
</svg>
