<?xml version="1.0"?>
<svg xmlns="http://www.w3.org/2000/svg" height="512px" viewBox="-8 0 480 480" width="512px"><path d="m464 48c-.035156-1.441406-.46875-2.839844-1.257812-4.046875l.113281-.074219-24-40c-1.445313-2.40625-4.046875-3.878906-6.855469-3.878906h-160c-2.808594 0-5.410156 1.472656-6.855469 3.878906l-24 40 .113281.074219c-.789062 1.207031-1.222656 2.605469-1.257812 4.046875v384c.035156 1.441406.46875 2.839844 1.257812 4.046875l-.113281.074219 24 40c1.445313 2.40625 4.046875 3.878906 6.855469 3.878906h160c2.808594 0 5.410156-1.472656 6.855469-3.878906l24-40-.113281-.074219c.789062-1.207031 1.222656-2.605469 1.257812-4.046875zm-36.527344 416h-150.945312l-14.398438-24h179.742188zm20.527344-72.40625c-48.378906-4.34375-84.082031-47.082031-79.738281-95.460938 3.800781-42.367187 37.375-75.9375 79.738281-79.742187zm0-191.203125c-57.21875 4.328125-100.089844 54.222656-95.761719 111.4375 3.871094 51.199219 44.5625 91.890625 95.761719 95.765625v16.40625h-192v-24.71875c23.066406-3.921875 39.957031-23.882812 40-47.28125v-80c0-17.671875 14.328125-32 32-32 26.5-.027344 47.972656-21.5 48-48v-64c0-17.671875 14.328125-32 32-32h40zm0-120.390625h-40c-26.5.027344-47.972656 21.5-48 48v64c0 17.671875-14.328125 32-32 32-26.5.027344-47.972656 21.5-48 48v80c-.054688 14.546875-9.914062 27.226562-24 30.863281v-326.863281h40v-16h-33.871094l14.398438-24h150.945312l14.398438 24h-97.871094v16h104zm0 0" fill="#d26343"/><path d="m224 168c-.035156-1.441406-.46875-2.839844-1.257812-4.046875l.113281-.074219-24-40c-1.445313-2.40625-4.046875-3.878906-6.855469-3.878906h-86.558594l2.503906-15.015625c2.566407-15.433594-7.863281-30.023437-23.296874-32.59375-15.433594-2.566406-30.027344 7.863281-32.59375 23.296875-.511719 3.078125-.511719 6.21875 0 9.296875l2.503906 15.015625h-22.558594c-2.808594 0-5.410156 1.472656-6.855469 3.878906l-24 40 .113281.074219c-.789062 1.207031-1.2226558 2.605469-1.257812 4.046875v264c.0351562 1.441406.46875 2.839844 1.257812 4.046875l-.113281.074219 24 40c1.445313 2.40625 4.046875 3.878906 6.855469 3.878906h160c2.808594 0 5.410156-1.472656 6.855469-3.878906l24-40-.113281-.074219c.789062-1.207031 1.222656-2.605469 1.257812-4.046875zm-153.40625-75.601562c4.738281-5.195313 12.796875-5.5625 17.992188-.820313.285156.261719.5625.535156.820312.820313 2.347656 2.761718 3.355469 6.417968 2.761719 9.992187l-2.945313 17.609375h-18.445312l-2.945313-17.601562c-.597656-3.574219.414063-7.234376 2.761719-10zm116.878906 371.601562h-150.945312l-14.398438-24h179.742188zm20.527344-72.550781c-35.039062-4.390625-59.890625-36.355469-55.5-71.398438 3.636719-29.011719 26.488281-51.863281 55.5-55.5zm0-143.042969c-43.960938 4.414062-76.023438 43.628906-71.609375 87.589844 3.800781 37.863281 33.746094 67.8125 71.609375 71.613281v16.390625h-192v-24.71875c23.066406-3.921875 39.957031-23.882812 40-47.28125v-16c0-17.671875 14.328125-32 32-32 26.5-.027344 47.972656-21.5 48-48v-8c0-17.671875 14.328125-32 32-32h40zm0-48.40625h-40c-26.5.027344-47.972656 21.5-48 48v8c0 17.671875-14.328125 32-32 32-26.5.027344-47.972656 21.5-48 48v16c-.054688 14.546875-9.914062 27.226562-24 30.863281v-206.863281h32v-16h-25.871094l14.398438-24h150.945312l14.398438 24h-81.871094v16h88zm0 0" fill="#d26343"/></svg>
