<?xml version="1.0"?>
<svg xmlns="http://www.w3.org/2000/svg" height="512px" viewBox="-48 0 480 480.0197" width="512px"><path d="m151.664062 161.613281-.460937-1.152343c-14.328125-35.804688-22.125-73.886719-23.015625-112.441407 4.34375-.101562 7.816406-3.65625 7.816406-8v-32c0-4.417969-3.582031-7.9999998-8-7.9999998h-79.996094c-4.417968 0-8 3.5820308-8 7.9999998v32c-.003906 4.34375 3.46875 7.898438 7.8125 8-.890624 38.558594-8.6875 76.648438-23.011718 112.457031l-.457032 1.144532c-16.117187 40.1875-24.3789058 83.089844-24.3437495 126.386718v167.992188c0 13.253906 10.7460935 24 23.9999995 24h127.992188c13.257812 0 24-10.746094 24-24v-167.992188c.039062-43.300781-8.222656-86.207031-24.335938-126.394531zm-95.660156-145.59375h64v16h-64zm-16.796875 151.527344.457031-1.140625c15.082032-37.695312 23.261719-77.796875 24.148438-118.386719h48.382812c.886719 40.589844 9.0625 80.695313 24.144532 118.394531l.460937 1.167969c12.328125 30.804688 19.828125 63.332031 22.234375 96.425781h-142.058594c2.402344-33.105468 9.902344-65.640624 22.230469-96.460937zm120.792969 288.453125c0 4.417969-3.582031 8-8 8h-127.992188c-4.417968 0-8-3.582031-8-8v-16h143.992188zm0-31.996094h-143.992188v-135.996094c0-2.671874.121094-5.335937.191407-8h143.609375c.074218 2.664063.191406 5.328126.191406 8zm0 0" fill="#17733c"/><path d="m88.003906 304.007812c-26.507812 0-47.996094 21.488282-47.996094 47.996094.023438 26.5 21.5 47.972656 47.996094 48 26.507813 0 48-21.488281 48-48 0-26.507812-21.492187-47.996094-48-47.996094zm0 79.996094c-17.671875 0-32-14.328125-32-32s14.328125-31.996094 32-31.996094 32 14.324219 32 31.996094-14.328125 32-32 32zm0 0" fill="#17733c"/><path d="m383.992188 32.816406c.214843-2.253906-.535157-4.496094-2.0625-6.164062-1.519532-1.679688-3.675782-2.632813-5.9375-2.632813h-1.136719c-3.636719-14.085937-16.316407-23.9453122-30.863281-23.9999998h-23.996094c-9.226563.03125-17.984375 4.0624998-24 11.0546878-11.394532-13.269531-31.390625-14.789063-44.660156-3.390625-.597657.511718-1.179688 1.050781-1.738282 1.609375-16.859375-14.121094-41.96875-11.898438-56.085937 4.960937-2.46875 2.945313-4.496094 6.234375-6.023438 9.765625h-2.351562c-4.417969-.023437-8.019531 3.539063-8.039063 7.957031-.003906.28125.011719.5625.039063.839844l38.199219 391.679688c.265624 3.21875-.714844 6.414062-2.738282 8.929687l-16.476562 20.597657c-5.511719 6.910156-4.375 16.976562 2.53125 22.484374 2.839844 2.265626 6.363281 3.496094 9.996094 3.492188h142.695312c8.839844 0 16-7.164062 16-16 0-3.632812-1.234375-7.15625-3.503906-9.992188l-16.476563-20.605468c-2.003906-2.476563-2.988281-5.625-2.753906-8.800782zm-63.996094-16.796875h23.996094c5.691406.015625 10.941406 3.066407 13.777343 8h-51.550781c2.835938-4.933593 8.085938-7.984375 13.777344-8zm-95.996094 0c7.890625.007813 15.269531 3.898438 19.742188 10.398438 2.496093 3.644531 7.476562 4.578125 11.121093 2.078125 1.183594-.8125 2.128907-1.925782 2.734375-3.230469 3.664063-7.957031 13.085938-11.4375 21.042969-7.773437 3.160156 1.453124 5.75 3.90625 7.378906 6.972656-3.496093.851562-5.972656 3.957031-6.023437 7.554687v23.996094c0 4.417969-3.582032 8-8 8-4.417969 0-8-3.582031-8-8s-3.582032-7.996094-8-7.996094c-4.417969 0-8 3.578125-8 7.996094v24c0 4.417969-3.582032 8-8 8-4.414063 0-7.996094-3.582031-7.996094-8v-47.996094c0-4.417969-3.582031-8-8-8h-17.746094c4.503906-5.078125 10.960938-7.988281 17.746094-8zm-30.046875 24h22.046875v39.996094c0 13.253906 10.742188 24 23.996094 24 13.257812 0 24-10.746094 24-24v-1.367187c12.496094 4.417968 26.207031-2.132813 30.625-14.625.910156-2.574219 1.375-5.277344 1.375-8.007813v-15.996094h71.195312l-7.269531 71.996094h-158.953125zm140.914063 403.375 16.476562 20.605469h-142.695312l16.476562-20.597656c4.589844-5.738282 6.804688-13.023438 6.183594-20.34375l-28.78125-295.042969h155.785156l-29.644531 295.1875c-.585938 7.273437 1.632812 14.496094 6.199219 20.191406zm0 0" fill="#17733c"/><path d="m239.996094 424.003906h80v15.996094h-80zm0 0" fill="#17733c"/><path d="m311.996094 144.015625h16v71.996094h-16zm0 0" fill="#17733c"/><path d="m311.996094 232.011719h16v15.996093h-16zm0 0" fill="#17733c"/></svg>
