<?xml version="1.0" encoding="iso-8859-1"?>
<!-- Generator: Adobe Illustrator 19.0.0, SVG Export Plug-In . SVG Version: 6.00 Build 0)  -->
<svg xmlns="http://www.w3.org/2000/svg" xmlns:xlink="http://www.w3.org/1999/xlink" version="1.1" id="Capa_1" x="0px" y="0px" viewBox="0 0 512 512" style="enable-background:new 0 0 512 512;" xml:space="preserve" width="512px" height="512px">
<g>
	<g>
		<path d="M346.332,471.367l-0.001-115.964v-0.001v-0.001v-33.128v-0.004c0-0.001,0-0.003,0-0.003v-63.63    c0-14.701-8.167-27.917-21.316-34.491l-12.024-6.013l-7.727-169.998h8.718c4.142,0,7.5-3.358,7.5-7.5c0-4.143-3.358-7.5-7.5-7.5    H313.2v-9.066C313.201,10.797,302.404,0,289.133,0h-66.267c-13.271,0-24.068,10.797-24.068,24.067v9.066h-0.782    c-4.142,0-7.5,3.357-7.5,7.5c0,4.142,3.358,7.5,7.5,7.5h8.717l-3.879,85.35c-0.188,4.139,3.014,7.646,7.152,7.833    c4.135,0.197,7.645-3.014,7.833-7.151l2.781-61.181h70.76l6.828,150.228c0.124,2.715,1.707,5.151,4.138,6.367l15.962,7.981    c8.034,4.018,13.024,12.093,13.024,21.075v56.133h-18.64c-3.686-28.006-27.696-49.7-56.693-49.7s-53.007,21.694-56.693,49.7    h-18.639v-56.133c0-8.982,4.991-17.059,13.025-21.075l15.962-7.981c2.431-1.216,4.014-3.652,4.138-6.367l2.69-59.18    c0.188-4.138-3.014-7.645-7.151-7.833c-4.137-0.16-7.645,3.015-7.833,7.151l-2.49,54.781l-12.023,6.013    c-13.148,6.574-21.316,19.79-21.316,34.491v63.572c0,0.021-0.003,0.04-0.003,0.061c0,0.02,0.003,0.04,0.003,0.061v33.011    c0,0.021-0.003,0.041-0.003,0.062c0,0.021,0.003,0.041,0.003,0.062v33.008c0,0.021-0.003,0.042-0.003,0.063    c0,0.022,0.003,0.042,0.003,0.064v99.334c0,13.27,10.797,24.067,24.068,24.067h132.53c13.271,0,24.068-10.797,24.068-24.067    v-16.564L346.332,471.367z M221.3,57.983l0.448-9.85h68.501l0.448,9.85H221.3z M298.201,33.133h-0.765    c-0.007,0-0.013-0.001-0.02-0.001h-9.065V32.35c0-4.143-3.358-7.5-7.5-7.5c-4.142,0-7.5,3.357-7.5,7.5v0.782H263.5V32.35    c0-4.143-3.358-7.5-7.5-7.5c-4.142,0-7.5,3.357-7.5,7.5v0.782h-9.852V32.35c0-4.143-3.358-7.5-7.5-7.5c-4.142,0-7.5,3.357-7.5,7.5    v0.782h-9.067c-0.007,0-0.013,0.001-0.02,0.001h-0.763v-9.066c0-5,4.068-9.067,9.068-9.067h66.267c5,0,9.068,4.067,9.068,9.067    V33.133z M213.797,322.267c0.001-23.269,18.932-42.2,42.201-42.2c23.27,0,42.201,18.931,42.201,42.2v66.268    c0,23.27-18.931,42.2-42.201,42.2s-42.201-18.931-42.201-42.2V322.267z M180.667,329.768h18.131v18.134h-18.131V329.768z     M180.667,362.901h18.131v18.134h-18.131V362.901z M331.331,487.933c0,5-4.067,9.067-9.067,9.067h-132.53    c-5,0-9.068-4.067-9.068-9.067v-9.066h150.665V487.933z M331.331,463.867H180.667v-67.832h18.639    c3.687,28.006,27.696,49.7,56.693,49.7s53.007-21.694,56.693-49.7h18.64V463.867z M331.332,381.035h-18.133v-18.134h18.133    V381.035z M331.332,347.901h-18.133v-18.134h18.133V347.901z" fill="#275b6e"/>
	</g>
</g>
<g>
</g>
<g>
</g>
<g>
</g>
<g>
</g>
<g>
</g>
<g>
</g>
<g>
</g>
<g>
</g>
<g>
</g>
<g>
</g>
<g>
</g>
<g>
</g>
<g>
</g>
<g>
</g>
<g>
</g>
</svg>
