<?xml version="1.0"?>
<svg xmlns="http://www.w3.org/2000/svg" height="512px" viewBox="-2 0 491 491.10187" width="512px"><path d="m443.796875 16.714844-62.121094-15.324219c-8.574219-2.117187-17.242187 3.113281-19.363281 11.683594l-5.761719 23.300781c-1.046875 4.25 1.523438 8.554688 5.761719 9.652344-10.144531 37.21875-26.878906 72.316406-49.40625 103.628906l-.710938 1c-25.28125 35.15625-43.59375 74.835938-53.941406 116.886719l-11.488281 46.492187-7.507813-40.742187c-7.816406-42.59375-23.722656-83.292969-46.855468-119.902344l-.664063-1.054687c-20.609375-32.597657-35.207031-68.628907-43.09375-106.378907 4.292969-.847656 7.109375-4.988281 6.316407-9.292969l-4.347657-23.605468c-1.644531-8.660156-9.964843-14.375-18.636719-12.796875l-62.925781 11.574219c-8.6875 1.597656-14.433593 9.9375-12.835937 18.625v.003906l4.351562 23.578125c.808594 4.292969 4.914063 7.140625 9.222656 6.398437 6.089844 38.089844 5.300782 76.964844-2.328124 114.777344l-.242188 1.199219c-8.5625 42.464843-8.90625 86.175781-1.015625 128.773437l30.453125 165.132813c2.363281 13.003906 14.820312 21.628906 27.824219 19.265625.039062-.003906.078125-.015625.121093-.023438l125.851563-23.195312c1.867187-.363282 3.683594-.949219 5.410156-1.742188l103.898438 25.667969c1.878906.46875 3.808593.703125 5.75.703125 11.023437-.015625 20.617187-7.542969 23.257812-18.246094l40.3125-163.011718c10.417969-42.023438 12.6875-85.648438 6.695313-128.527344l-.175782-1.238282c-5.355468-38.210937-3.820312-77.070312 4.542969-114.734374 4.265625 1.003906 8.546875-1.617188 9.597657-5.871094l5.75-23.292969c2.117187-8.574219-3.117188-17.246094-11.695313-19.363281zm-360.890625 162.902344.238281-1.207032c8.558594-42.4375 8.90625-86.121094 1.023438-128.6875-.699219-3.789062-4.007813-6.539062-7.859375-6.542968-.488282 0-.976563.042968-1.457032.128906l-2.902343-15.75 62.929687-11.597656 2.902344 15.734374c-4.332031.808594-7.195312 4.972657-6.398438 9.308594 7.808594 42.578125 23.703126 83.261719 46.824219 119.855469l.664063 1.058594c17.703125 28.0625 30.972656 58.691406 39.335937 90.804687l-139.667969 25.753906c-3.636718-32.984374-2.164062-66.328124 4.367188-98.859374zm-.96875 122.6875c-.488281-2.648438-.847656-5.304688-1.273438-7.953126l141.210938-26.035156c.554688 2.625 1.160156 5.234375 1.648438 7.871094l24.644531 133.675781-141.570313 26.109375zm165.621094 148.335937h-.007813l-125.851562 23.195313c-4.339844.796874-8.503907-2.066407-9.3125-6.398438l-2.902344-15.734375 141.570313-26.105469 2.902343 15.722656c.804688 4.339844-2.058593 8.511719-6.398437 9.320313zm125.6875 18.308594c-.5 2.046875-1.796875 3.808593-3.601563 4.902343v-.015624c-1.8125 1.089843-3.988281 1.421874-6.046875.917968l-95.179687-23.503906c1.589843-4.070312 2.023437-8.5 1.25-12.800781l-2.234375-12.125 109.652344 27.089843zm40.300781-163.046875-32.597656 131.972656-116.664063-28.792969-10.480468-56.789062 19.980468-80.917969c.640625-2.609375 1.410156-5.175781 2.113282-7.769531l139.402343 34.441406c-.585937 2.617187-1.105469 5.246094-1.753906 7.855469zm22.574219-258.113282c-4.289063-1.058593-8.621094 1.558594-9.679688 5.84375-10.421875 42.019532-12.691406 85.648438-6.679687 128.519532l.167969 1.230468c4.558593 32.871094 4.015624 66.246094-1.597657 98.949219l-137.835937-34.066406c10.277344-31.558594 25.355468-61.339844 44.710937-88.300781l.710938-.992188c25.28125-35.144531 43.585937-74.808594 53.925781-116.847656 1.058594-4.285156-1.554688-8.613281-5.839844-9.679688l3.839844-15.53125 62.117188 15.339844zm0 0" fill="#17733c"/><path d="m211.519531 343.414062c-4.808593-26.0625-29.835937-43.296874-55.902343-38.488281-26.039063 4.847657-43.25 29.847657-38.488282 55.902344 4.808594 26.0625 29.835938 43.292969 55.902344 38.484375 26.0625-4.808594 43.292969-29.835938 38.488281-55.898438zm-41.46875 40.183594c-17.367187 3.183594-34.03125-8.308594-37.226562-25.675781-3.175781-17.378906 8.320312-34.050781 25.699219-37.261719 17.378906-3.183594 34.050781 8.324219 37.234374 25.703125 3.183594 17.378907-8.324218 34.050781-25.707031 37.234375zm0 0" fill="#17733c"/><path d="m328.441406 302.34375c-26.613281-.015625-48.203125 21.542969-48.21875 48.160156-.015625 22.148438 15.070313 41.453125 36.5625 46.796875 3.792969.941407 7.6875 1.417969 11.597656 1.421875 26.613282.015625 48.203126-21.546875 48.21875-48.160156.015626-26.613281-21.546874-48.203125-48.160156-48.21875zm30.949219 56.023438c-4.230469 17.15625-21.570313 27.632812-38.726563 23.398437-8.234374-2.03125-15.328124-7.253906-19.714843-14.515625-4.382813-7.265625-5.703125-15.972656-3.679688-24.210938 4.234375-17.152343 21.570313-27.628906 38.726563-23.398437 17.152344 4.234375 27.628906 21.574219 23.394531 38.726563zm0 0" fill="#17733c"/><path d="m201.613281 134.847656 12.796875-9.601562 24.003906 31.988281-12.796874 9.601563zm0 0" fill="#17733c"/><path d="m257.613281 141.222656 24-31.988281 12.796875 9.597656-24.003906 31.992188zm0 0" fill="#17733c"/><path d="m16.046875 433.964844h15.996094v15.996094h-15.996094zm0 0" fill="#17733c"/><path d="m32.042969 449.960938h15.996093v15.996093h-15.996093zm0 0" fill="#17733c"/><path d="m16.046875 465.957031h15.996094v15.996094h-15.996094zm0 0" fill="#17733c"/><path d="m.0507812 449.960938h15.9960938v15.996093h-15.9960938zm0 0" fill="#17733c"/><path d="m40.042969 385.972656h15.996093v15.996094h-15.996093zm0 0" fill="#17733c"/><path d="m471.953125 361.980469h15.996094v15.996093h-15.996094zm0 0" fill="#17733c"/><path d="m455.957031 345.980469h15.996094v16h-15.996094zm0 0" fill="#17733c"/><path d="m439.960938 361.980469h15.996093v15.996093h-15.996093zm0 0" fill="#17733c"/><path d="m455.957031 377.976562h15.996094v15.996094h-15.996094zm0 0" fill="#17733c"/><path d="m431.960938 417.96875h15.996093v15.996094h-15.996093zm0 0" fill="#17733c"/><path d="m455.957031 250h15.996094v16h-15.996094zm0 0" fill="#17733c"/></svg>
