<?xml version="1.0"?>
<svg xmlns="http://www.w3.org/2000/svg" height="512px" viewBox="-56 0 512 512" width="512px"><path d="m180 246.570312c0-13.355468-5.203125-25.914062-14.648438-35.359374l-24.777343-24.777344c5.222656-40.804688 3-82.207032-6.539063-122.136719 2.46875-4.941406 4.910156-9.824219 4.910156-9.824219 1.066407-2.136718 1.335938-4.582031.757813-6.898437l-10-40c-1.113281-4.453125-5.113281-7.574219-9.703125-7.574219h-60c-4.589844 0-8.589844 3.121094-9.699219 7.574219l-10 40c-.582031 2.3125-.3125 4.757812.753907 6.894531 0 0 2.449218 4.902344 4.925781 9.851562-9.214844 38.472657-11.945313 79.957032-6.554688 122.113282l-24.777343 24.777344c-9.445313 9.445312-14.648438 22.003906-14.648438 35.359374v235.429688c0 16.542969 13.457031 30 30 30h120c16.542969 0 30-13.457031 30-30 0-10.765625 0-225.988281 0-235.429688zm-113.730469-181.003906c.582031-2.324218.3125-4.78125-.761719-6.921875-1.660156-3.3125-3.578124-7.144531-4.910156-9.808593l7.210938-28.835938h44.382812l7.210938 28.835938c-1.328125 2.660156-3.242188 6.484374-4.898438 9.808593-1.066406 2.136719-1.332031 4.582031-.753906 6.898438 2.839844 11.324219 5.0625 22.871093 6.644531 34.457031h-60.773437c1.578125-11.589844 3.804687-23.128906 6.648437-34.433594zm93.730469 416.433594c0 5.515625-4.484375 10-10 10h-120c-5.515625 0-10-4.484375-10-10v-30h140zm0-222h-30c-5.523438 0-10 4.476562-10 10s4.476562 10 10 10h30v152h-140v-152h30c5.523438 0 10-4.476562 10-10s-4.476562-10-10-10h-30v-13.429688c0-8.015624 3.121094-15.550781 8.789062-21.21875l28.28125-28.28125c2.226563-2.226562 3.273438-5.371093 2.828126-8.484374-3.246094-22.722657-4.039063-45.746094-2.371094-68.585938h64.949218c1.664063 22.851562.871094 45.878906-2.375 68.585938-.445312 3.113281.601563 6.257812 2.828126 8.484374l28.277343 28.28125c5.671875 5.667969 8.792969 13.203126 8.792969 21.21875zm0 0" fill="#d26343"/><path d="m90 316c-22.054688 0-40 17.945312-40 40s17.945312 40 40 40 40-17.945312 40-40-17.945312-40-40-40zm0 60c-11.027344 0-20-8.972656-20-20s8.972656-20 20-20 20 8.972656 20 20-8.972656 20-20 20zm0 0" fill="#d26343"/><path d="m370 512c16.542969 0 30-13.457031 30-30 0-3.652344 0-203.761719 0-212v-23.429688c0-13.355468-5.203125-25.914062-14.648438-35.359374l-24.777343-24.777344c5.222656-40.804688 3-82.207032-6.539063-122.136719 2.46875-4.941406 4.910156-9.824219 4.910156-9.824219 1.066407-2.136718 1.335938-4.582031.757813-6.898437l-10-40c-1.113281-4.453125-5.113281-7.574219-9.703125-7.574219h-60c-4.589844 0-8.589844 3.121094-9.699219 7.574219l-10 40c-.582031 2.3125-.3125 4.757812.753907 6.894531 0 0 2.449218 4.902344 4.925781 9.851562-9.214844 38.472657-11.945313 79.957032-6.554688 122.113282l-24.777343 24.777344c-9.445313 9.445312-14.648438 22.003906-14.648438 35.359374v23.429688 212c0 16.542969 13.457031 30 30 30zm-83.730469-446.433594c.582031-2.324218.3125-4.78125-.761719-6.921875-1.660156-3.3125-3.578124-7.144531-4.910156-9.808593l7.210938-28.835938h44.382812l7.210938 28.835938c-1.328125 2.660156-3.242188 6.484374-4.898438 9.808593-1.066406 2.136719-1.332031 4.582031-.753906 6.898438 2.839844 11.324219 5.0625 22.871093 6.644531 34.457031h-60.773437c1.578125-11.589844 3.804687-23.128906 6.648437-34.433594zm-46.269531 214.433594h30c5.523438 0 10-4.476562 10-10s-4.476562-10-10-10h-30v-13.429688c0-8.015624 3.121094-15.550781 8.789062-21.21875l28.28125-28.28125c2.226563-2.226562 3.273438-5.371093 2.828126-8.484374-3.246094-22.722657-4.039063-45.746094-2.371094-68.585938h64.949218c1.664063 22.851562.871094 45.878906-2.375 68.585938-.445312 3.113281.601563 6.257812 2.828126 8.484374l28.277343 28.28125c5.671875 5.667969 8.792969 13.203126 8.792969 21.21875v13.429688h-30c-5.523438 0-10 4.476562-10 10s4.476562 10 10 10h30v152h-140zm0 202v-30h140v30c0 5.515625-4.484375 10-10 10h-120c-5.515625 0-10-4.484375-10-10zm0 0" fill="#d26343"/><path d="m310 316c-22.054688 0-40 17.945312-40 40s17.945312 40 40 40 40-17.945312 40-40-17.945312-40-40-40zm0 60c-11.027344 0-20-8.972656-20-20s8.972656-20 20-20 20 8.972656 20 20-8.972656 20-20 20zm0 0" fill="#d26343"/><path d="m90 280c5.519531 0 10-4.480469 10-10s-4.480469-10-10-10-10 4.480469-10 10 4.480469 10 10 10zm0 0" fill="#d26343"/><path d="m310 280c5.519531 0 10-4.480469 10-10s-4.480469-10-10-10-10 4.480469-10 10 4.480469 10 10 10zm0 0" fill="#d26343"/></svg>
